<svg width="44" height="45" viewBox="0 0 44 45" fill="none" xmlns="http://www.w3.org/2000/svg">
<rect x="0.5" y="1" width="43" height="43" rx="21.5" stroke="#8952FF"/>
<path d="M27.9951 18.9156H28.0047M28.0047 16.5108V13.506M16.602 34.5H13.2611C12.8735 34.5 12.4835 34.4448 12.1271 34.2924C10.9678 33.7944 10.3786 33.1356 10.105 32.724C10.0308 32.61 9.99427 32.4755 10.0007 32.3396C10.0072 32.2037 10.0563 32.0733 10.141 31.9668C11.485 30.1812 14.6003 29.1036 16.602 29.1036M16.608 34.5H19.9477C20.3365 34.5 20.7253 34.4448 21.0817 34.2924C22.2421 33.7944 22.8301 33.1356 23.1049 32.724C23.1792 32.61 23.2157 32.4755 23.2092 32.3396C23.2027 32.2037 23.1537 32.0733 23.0689 31.9668C21.7249 30.1812 18.6096 29.1036 16.608 29.1036M34 16.2504C34 19.4256 31.3119 22.0008 27.9951 22.0008C27.6046 22.0008 27.2174 21.9648 26.8334 21.8928C26.5574 21.8412 26.4206 21.816 26.3234 21.8304C26.2274 21.8448 26.0906 21.9168 25.8194 22.0632C25.0426 22.4773 24.1485 22.6165 23.2825 22.458C23.6113 22.0524 23.8345 21.5664 23.9342 21.0456C23.9942 20.7276 23.8453 20.418 23.6221 20.1912C22.5799 19.1441 21.9934 17.7278 21.9901 16.2504C21.9901 13.0752 24.6782 10.5 27.9951 10.5C31.3119 10.5 34 13.0752 34 16.2504ZM19.9417 22.8468C19.9404 23.7299 19.5885 24.5763 18.9634 25.2001C18.3383 25.8238 17.4911 26.1738 16.608 26.1732C16.1705 26.1738 15.7372 26.0883 15.3328 25.9215C14.9284 25.7546 14.5608 25.5098 14.251 25.2009C13.9412 24.892 13.6953 24.5252 13.5273 24.1212C13.3593 23.7173 13.2725 23.2843 13.2719 22.8468C13.2724 22.4092 13.359 21.9761 13.527 21.572C13.6949 21.1679 13.9408 20.8009 14.2506 20.4919C14.5604 20.1829 14.928 19.938 15.3325 19.7711C15.737 19.6041 16.1704 19.5186 16.608 19.5192C17.4913 19.5186 18.3387 19.8688 18.9638 20.4928C19.589 21.1168 19.9407 21.9635 19.9417 22.8468Z" stroke="#8952FF" stroke-width="1.5" stroke-linecap="round" stroke-linejoin="round"/>
</svg>
