<svg width="44" height="45" viewBox="0 0 44 45" fill="none" xmlns="http://www.w3.org/2000/svg">
<rect x="0.5" y="1" width="43" height="43" rx="21.5" stroke="#F58634"/>
<path d="M27.9996 34.5C28.6361 34.5 29.2466 34.1839 29.6967 33.6213C30.1468 33.0587 30.3996 32.2956 30.3996 31.5C30.3996 30.7044 30.1468 29.9413 29.6967 29.3787C29.2466 28.8161 28.6361 28.5 27.9996 28.5C27.3631 28.5 26.7526 28.8161 26.3026 29.3787C25.8525 29.9413 25.5996 30.7044 25.5996 31.5C25.5996 32.2956 25.8525 33.0587 26.3026 33.6213C26.7526 34.1839 27.3631 34.5 27.9996 34.5ZM15.9996 34.5C16.6361 34.5 17.2466 34.1839 17.6967 33.6213C18.1468 33.0587 18.3996 32.2956 18.3996 31.5C18.3996 30.7044 18.1468 29.9413 17.6967 29.3787C17.2466 28.8161 16.6361 28.5 15.9996 28.5C15.3631 28.5 14.7526 28.8161 14.3026 29.3787C13.8525 29.9413 13.5996 30.7044 13.5996 31.5C13.5996 32.2956 13.8525 33.0587 14.3026 33.6213C14.7526 34.1839 15.3631 34.5 15.9996 34.5Z" stroke="#F58634" stroke-width="1.5" stroke-linecap="round" stroke-linejoin="round"/>
<path d="M30.4 21H34M34 21V24C34 27.5355 34 29.3025 33.1216 30.402C32.5372 31.1325 31.7164 31.377 30.4 31.458M34 21L32.4688 17.445C31.6408 15.522 31.2268 14.5605 30.5152 14.031C29.8048 13.5 28.9324 13.5 27.1852 13.5H25M13.6 31.458C12.2836 31.377 11.464 31.1325 10.8784 30.402C10 29.3025 10 27.5355 10 24V18C10 14.4645 10 12.696 10.8784 11.598C11.7568 10.5 13.1716 10.5 16 10.5H19.96C21.3004 10.5 21.97 10.5 22.5124 10.7205C23.0527 10.94 23.5437 11.3161 23.9454 11.8182C24.3471 12.3203 24.648 12.9342 24.8236 13.6095C25 14.2875 25 15.1245 25 16.8C25 18.63 25 19.5465 24.5992 20.166C24.52 20.288 24.4312 20.399 24.3328 20.499C23.8372 21 23.1052 21 21.64 21H17.2M25.6 31.5H18.4" stroke="#F58634" stroke-width="1.5" stroke-linecap="round" stroke-linejoin="round"/>
<path d="M19.6002 24C19.6002 24 18.7938 23.166 18.0846 22.374C17.5842 21.87 17.2002 21.4395 17.2002 21.0075C17.2002 20.625 17.5002 20.2695 17.9874 19.7115C18.6786 18.993 19.6002 18 19.6002 18" stroke="#F58634" stroke-width="1.5" stroke-linecap="round" stroke-linejoin="round"/>
</svg>
