<svg width="51" height="50" viewBox="0 0 51 50" fill="none" xmlns="http://www.w3.org/2000/svg">
<g clip-path="url(#clip0_816_13081)">
<path d="M25.5001 2.77734C21.1049 2.77734 16.8085 4.08065 13.1541 6.52246C9.49963 8.96427 6.65136 12.4349 4.96941 16.4955C3.28746 20.5561 2.84739 25.0242 3.70484 29.3349C4.56229 33.6456 6.67875 37.6052 9.78658 40.7131C12.8944 43.8209 16.854 45.9373 21.1647 46.7948C25.4754 47.6522 29.9436 47.2122 34.0041 45.5302C38.0647 43.8483 41.5354 41 43.9772 37.3456C46.419 33.6911 47.7223 29.3947 47.7223 24.9996C47.7223 19.1059 45.381 13.4536 41.2135 9.28608C37.0461 5.11861 31.3938 2.77734 25.5001 2.77734ZM25.5001 44.444C21.6543 44.444 17.8949 43.3036 14.6973 41.167C11.4997 39.0304 9.00744 35.9936 7.53574 32.4406C6.06404 28.8876 5.67897 24.978 6.42924 21.2061C7.17951 17.4343 9.03141 13.9696 11.7508 11.2503C14.4701 8.53091 17.9348 6.67901 21.7066 5.92874C25.4785 5.17847 29.3881 5.56354 32.9411 7.03524C36.4941 8.50695 39.5309 10.9992 41.6675 14.1968C43.8041 17.3944 44.9445 21.1538 44.9445 24.9996C44.9445 30.1566 42.8959 35.1023 39.2494 38.7489C35.6028 42.3954 30.6571 44.444 25.5001 44.444Z" fill="#08932E"/>
<path d="M39.389 16.8062C39.1288 16.5475 38.7767 16.4023 38.4098 16.4023C38.0429 16.4023 37.6909 16.5475 37.4307 16.8062L22.014 32.1534L13.6807 23.8201C13.4265 23.5457 13.0737 23.3835 12.6999 23.3691C12.3262 23.3548 11.962 23.4896 11.6876 23.7437C11.4132 23.9979 11.251 24.3507 11.2366 24.7244C11.2223 25.0982 11.357 25.4624 11.6112 25.7368L22.014 36.1118L39.389 18.7784C39.5192 18.6493 39.6225 18.4957 39.693 18.3265C39.7635 18.1572 39.7998 17.9757 39.7998 17.7923C39.7998 17.609 39.7635 17.4274 39.693 17.2582C39.6225 17.089 39.5192 16.9353 39.389 16.8062Z" fill="#08932E"/>
</g>
<defs>
<clipPath id="clip0_816_13081">
<rect width="50" height="50" fill="white" transform="translate(0.5)"/>
</clipPath>
</defs>
</svg>
