<svg width="15" height="14" viewBox="0 0 15 14" fill="none" xmlns="http://www.w3.org/2000/svg">
<path d="M12.8979 3.91753e-06H2.0979C1.5415 3.91753e-06 1.00789 0.206355 0.614461 0.573661C0.221028 0.940968 0 1.43914 0 1.95859V8.90767C0 9.42712 0.221028 9.92529 0.614461 10.2926C1.00789 10.6599 1.5415 10.8663 2.0979 10.8663H4.53986L4.22937 13.2166H3.3021C3.19082 13.2166 3.0841 13.2578 3.00541 13.3313C2.92672 13.4048 2.88252 13.5044 2.88252 13.6083C2.88252 13.7122 2.92672 13.8118 3.00541 13.8853C3.0841 13.9587 3.19082 14 3.3021 14H11.7021C11.8134 14 11.9201 13.9587 11.9988 13.8853C12.0775 13.8118 12.1217 13.7122 12.1217 13.6083C12.1217 13.5044 12.0775 13.4048 11.9988 13.3313C11.9201 13.2578 11.8134 13.2166 11.7021 13.2166H10.7706L10.4601 10.8663H12.9021C13.4585 10.8663 13.9921 10.6599 14.3855 10.2926C14.779 9.92529 15 9.42712 15 8.90767V1.95859C15 1.70106 14.9456 1.44605 14.8399 1.20817C14.7342 0.970285 14.5793 0.754198 14.3841 0.572275C14.1888 0.390351 13.957 0.246165 13.702 0.147967C13.447 0.0497692 13.1738 -0.000511154 12.8979 3.91753e-06ZM5.06853 13.2166L5.38741 10.8663H9.60839L9.91888 13.2166H5.06853ZM14.1566 8.90767C14.1566 9.21934 14.024 9.51824 13.788 9.73863C13.5519 9.95901 13.2317 10.0828 12.8979 10.0828H2.0979C1.76406 10.0828 1.4439 9.95901 1.20784 9.73863C0.971778 9.51824 0.839161 9.21934 0.839161 8.90767V8.51595H14.1566V8.90767ZM14.1566 7.73251H0.839161V1.95859C0.839161 1.64692 0.971778 1.34802 1.20784 1.12763C1.4439 0.90725 1.76406 0.78344 2.0979 0.78344H12.8979C13.2317 0.78344 13.5519 0.90725 13.788 1.12763C14.024 1.34802 14.1566 1.64692 14.1566 1.95859V7.73251Z" fill="#EF5DA8"/>
</svg>
