<svg width="13" height="15" viewBox="0 0 13 15" fill="none" xmlns="http://www.w3.org/2000/svg">
<path d="M1.5 10.4474H11.5M1.732 1.03937C1.331 1.33558 1.158 1.70768 1.078 2.14979C1 2.57568 1 3.11726 1 3.78853V11.2115C1 11.8827 1 12.4243 1.078 12.8502C1.158 13.2923 1.331 13.6644 1.732 13.9606C2.134 14.2561 2.639 14.3836 3.239 14.4425C3.817 14.5 4.552 14.5 5.463 14.5H7.537C8.448 14.5 9.183 14.5 9.761 14.4425C10.361 14.3836 10.866 14.2561 11.268 13.9606C11.669 13.6644 11.842 13.2923 11.922 12.8502C12 12.4243 12 11.8827 12 11.2115V3.78853C12 3.11726 12 2.57568 11.922 2.14979C11.842 1.70768 11.669 1.33558 11.268 1.03937C10.866 0.743895 10.361 0.616421 9.761 0.557474C9.183 0.5 8.448 0.5 7.537 0.5H5.463C4.552 0.5 3.817 0.5 3.239 0.557474C2.639 0.616421 2.134 0.743895 1.732 1.03937Z" stroke="#5D5FEF"/>
</svg>
